<svg xmlns="http://www.w3.org/2000/svg" width="876.017" height="659.624" viewBox="0 0 876.017 659.624">
  <g id="Group_2" data-name="Group 2" transform="translate(-421.668 -77.044)" opacity="0.2">
    <path id="Path_2" data-name="Path 2" d="M815.42,736.668c-1.214,0-3.643,0-4.857-1.214a19.8,19.8,0,0,1-13.358-15.787l-27.93-313.3L729.2,428.224c-6.071,3.643-13.357,2.428-19.429-1.215L429.257,230.285a20.14,20.14,0,0,1-7.286-19.43A15.8,15.8,0,0,1,437.758,197.5l839.115-120.22a18.063,18.063,0,0,1,18.215,8.5,18.386,18.386,0,0,1-1.214,20.644L829.992,729.382C827.564,734.24,821.492,736.668,815.42,736.668Zm-12.143-355.8,25.5,289.015,383.734-516.1ZM488.76,226.642,715.844,386.936l468.738-259.871Z" fill="#fcee21"/>
  </g>
</svg>
